<?xml version="1.0" encoding="utf-8" standalone="no"?>
<!DOCTYPE svg PUBLIC "-//W3C//DTD SVG 1.1//EN"
  "http://www.w3.org/Graphics/SVG/1.1/DTD/svg11.dtd">
<!-- Created with matplotlib (https://matplotlib.org/) -->
<svg height="288pt" version="1.1" viewBox="0 0 288 288" width="288pt" xmlns="http://www.w3.org/2000/svg" xmlns:xlink="http://www.w3.org/1999/xlink">
 <metadata>
  <rdf:RDF xmlns:cc="http://creativecommons.org/ns#" xmlns:dc="http://purl.org/dc/elements/1.1/" xmlns:rdf="http://www.w3.org/1999/02/22-rdf-syntax-ns#">
   <cc:Work>
    <dc:type rdf:resource="http://purl.org/dc/dcmitype/StillImage"/>
    <dc:date>2021-12-02T10:11:32.674812</dc:date>
    <dc:format>image/svg+xml</dc:format>
    <dc:creator>
     <cc:Agent>
      <dc:title>Matplotlib v3.3.1, https://matplotlib.org/</dc:title>
     </cc:Agent>
    </dc:creator>
   </cc:Work>
  </rdf:RDF>
 </metadata>
 <defs>
  <style type="text/css">*{stroke-linecap:butt;stroke-linejoin:round;}</style>
 </defs>
 <g id="figure_1">
  <g id="patch_1">
   <path d="M 0 288 
L 288 288 
L 288 0 
L 0 0 
z
" style="fill:none;"/>
  </g>
  <g id="axes_1">
   <g id="patch_2">
    <path d="M 36 252 
L 259.2 252 
L 259.2 34.56 
L 36 34.56 
z
" style="fill:#ffffff;"/>
   </g>
   <g id="matplotlib.axis_1">
    <g id="text_1">
     <!-- $\boldmath{r}$ -->
     <g transform="translate(145.352637 262.918498)scale(0.1 -0.1)">
      <defs>
       <path d="M 38.90625 41.140625 
C 35.796875 40.59375 34.203125 38.390625 34.203125 36.1875 
C 34.203125 33.796875 36.09375 32.984375 37.5 32.984375 
C 40.296875 32.984375 42.59375 35.390625 42.59375 38.390625 
C 42.59375 41.421875 39.5 44 34.5 44 
C 30.5 44 25.90625 42.1875 21.703125 36.484375 
C 21 41.5625 17 44 13 44 
C 9.09375 44 7.09375 41.28125 5.90625 39.1875 
C 4.203125 35.59375 2.703125 29.5625 2.703125 29.0625 
C 2.703125 28.65625 3.09375 28.140625 3.796875 28.140625 
C 4.59375 28.140625 4.703125 28.25 5.296875 30.578125 
C 6.796875 36.59375 8.703125 41.984375 12.703125 41.984375 
C 15.09375 41.984375 15.796875 40.6875 15.796875 37.796875 
C 15.796875 35.59375 14.796875 31.6875 14.09375 28.546875 
L 11.296875 17.65625 
C 10.90625 15.734375 9.796875 11.1875 9.296875 9.375 
C 8.59375 6.75 7.5 2 7.5 1.5 
C 7.5 0.09375 8.59375 -1 10.09375 -1 
C 11.203125 -1 13.09375 -0.3125 13.703125 1.703125 
C 14 2.5 17.703125 17.75 18.296875 20.078125 
C 18.796875 22.296875 19.40625 24.40625 19.90625 26.640625 
C 20.296875 28.046875 20.703125 29.65625 21 30.96875 
C 21.296875 31.875 24 36.796875 26.5 38.984375 
C 27.703125 40.09375 30.296875 41.984375 34.40625 41.984375 
C 36 41.984375 37.59375 41.78125 38.90625 41.140625 
z
" id="CMMI12-114"/>
      </defs>
      <use transform="scale(0.996264)" xlink:href="#CMMI12-114"/>
     </g>
    </g>
   </g>
   <g id="matplotlib.axis_2">
    <g id="text_2">
     <!-- $p( \boldmath{r})$ -->
     <g transform="translate(29.50934 152.046336)rotate(-90)scale(0.1 -0.1)">
      <defs>
       <path d="M 4.296875 -12.40625 
C 3.59375 -15.328125 3.203125 -16.109375 -0.90625 -16.109375 
C -2.109375 -16.109375 -3.109375 -16.109375 -3.109375 -18 
C -3.109375 -18.203125 -3 -19 -1.90625 -19 
C -0.609375 -19 0.796875 -18.8125 2.09375 -18.8125 
L 6.40625 -18.8125 
C 8.5 -18.8125 13.59375 -19 15.703125 -19 
C 16.296875 -19 17.5 -19 17.5 -17.203125 
C 17.5 -16.109375 16.796875 -16.109375 15.09375 -16.109375 
C 10.5 -16.109375 10.203125 -15.421875 10.203125 -14.640625 
C 10.203125 -13.484375 14.703125 3.390625 15.296875 5.6875 
C 16.40625 2.890625 19.09375 -1 24.296875 -1 
C 35.59375 -1 47.796875 13.65625 47.796875 28.328125 
C 47.796875 37.5 42.59375 44 35.09375 44 
C 28.703125 44 23.296875 37.796875 22.203125 36.40625 
C 21.40625 41.390625 17.5 44 13.5 44 
C 10.59375 44 8.296875 42.59375 6.40625 38.796875 
C 4.59375 35.203125 3.203125 29.125 3.203125 28.71875 
C 3.203125 28.328125 3.59375 27.828125 4.296875 27.828125 
C 5.09375 27.828125 5.203125 27.921875 5.796875 30.21875 
C 7.296875 36.109375 9.203125 41.984375 13.203125 41.984375 
C 15.5 41.984375 16.296875 40.390625 16.296875 37.40625 
C 16.296875 35.015625 16 34.015625 15.59375 32.21875 
z
M 21.59375 31.125 
C 22.296875 33.90625 25.09375 36.8125 26.703125 38.203125 
C 27.796875 39.203125 31.09375 41.984375 34.90625 41.984375 
C 39.296875 41.984375 41.296875 37.609375 41.296875 32.421875 
C 41.296875 27.625 38.5 16.359375 36 11.171875 
C 33.5 5.78125 28.90625 1 24.296875 1 
C 17.5 1 16.40625 9.578125 16.40625 9.96875 
C 16.40625 10.265625 16.59375 11.0625 16.703125 11.5625 
z
" id="CMMI12-112"/>
       <path d="M 30.59375 -24.40625 
C 30.59375 -24.3125 30.59375 -24.109375 30.296875 -23.8125 
C 25.703125 -19.109375 13.40625 -6.296875 13.40625 24.9375 
C 13.40625 56.171875 25.5 68.875 30.40625 73.890625 
C 30.40625 73.984375 30.59375 74.1875 30.59375 74.484375 
C 30.59375 74.796875 30.296875 75 29.90625 75 
C 28.796875 75 20.296875 67.578125 15.40625 56.5625 
C 10.40625 45.453125 9 34.65625 9 25.046875 
C 9 17.828125 9.703125 5.625 15.703125 -7.296875 
C 20.5 -17.703125 28.703125 -25 29.90625 -25 
C 30.40625 -25 30.59375 -24.8125 30.59375 -24.40625 
z
" id="CMR17-40"/>
       <path d="M 26.296875 24.9375 
C 26.296875 32.140625 25.59375 44.359375 19.59375 57.265625 
C 14.796875 67.6875 6.59375 75 5.40625 75 
C 5.09375 75 4.703125 74.890625 4.703125 74.390625 
C 4.703125 74.1875 4.796875 74.09375 4.90625 73.890625 
C 9.703125 68.875 21.90625 56.171875 21.90625 25.046875 
C 21.90625 -6.1875 9.796875 -18.90625 4.90625 -23.90625 
C 4.796875 -24.109375 4.703125 -24.203125 4.703125 -24.40625 
C 4.703125 -24.90625 5.09375 -25 5.40625 -25 
C 6.5 -25 15 -17.609375 19.90625 -6.59375 
C 24.90625 4.515625 26.296875 15.328125 26.296875 24.9375 
z
" id="CMR17-41"/>
      </defs>
      <use transform="scale(0.996264)" xlink:href="#CMMI12-112"/>
      <use transform="translate(48.959514 0)scale(0.996264)" xlink:href="#CMR17-40"/>
      <use transform="translate(84.240282 0)scale(0.996264)" xlink:href="#CMMI12-114"/>
      <use transform="translate(130.910894 0)scale(0.996264)" xlink:href="#CMR17-41"/>
     </g>
    </g>
   </g>
   <g id="line2d_1">
    <path clip-path="url(#pa5b6ade47e)" d="M 91.8 252 
L 91.8 34.56 
" style="fill:none;stroke:#ff0000;stroke-dasharray:5.55,2.4;stroke-dashoffset:0;stroke-opacity:0.5;stroke-width:1.5;"/>
   </g>
   <g id="line2d_2">
    <path clip-path="url(#pa5b6ade47e)" d="M 203.4 252 
L 203.4 34.56 
" style="fill:none;stroke:#ff0000;stroke-dasharray:5.55,2.4;stroke-dashoffset:0;stroke-opacity:0.5;stroke-width:1.5;"/>
   </g>
   <g id="line2d_3">
    <path clip-path="url(#pa5b6ade47e)" d="M 36 44.443636 
L 38.254545 45.238793 
L 40.509091 47.61147 
L 42.763636 51.523489 
L 45.018182 56.911905 
L 47.272727 63.690016 
L 49.527273 71.748759 
L 51.781818 80.958467 
L 54.036364 91.170952 
L 56.290909 102.221891 
L 58.545455 113.93347 
L 60.8 126.117246 
L 63.054545 138.577176 
L 65.309091 151.112778 
L 67.563636 163.522346 
L 69.818182 175.606208 
L 72.072727 187.169929 
L 74.327273 198.027445 
L 76.581818 208.004054 
L 78.836364 216.939228 
L 81.090909 224.689198 
L 83.345455 231.129264 
L 85.6 236.155802 
L 87.854545 239.687933 
L 90.109091 241.668825 
L 92.363636 242.066604 
L 94.618182 240.874869 
L 96.872727 238.112796 
L 99.127273 233.824829 
L 101.381818 228.079961 
L 103.636364 220.97063 
L 105.890909 212.611227 
L 108.145455 203.136259 
L 110.4 192.698182 
L 112.654545 181.464947 
L 114.909091 169.617303 
L 117.163636 157.345881 
L 119.418182 144.848134 
L 121.672727 132.325155 
L 123.927273 119.978444 
L 126.181818 108.006664 
L 128.436364 96.602444 
L 130.690909 85.949284 
L 132.945455 76.218597 
L 135.2 67.566953 
L 137.454545 60.13356 
L 139.709091 54.038024 
L 141.963636 49.378426 
L 144.218182 46.229738 
L 146.472727 44.642626 
L 148.727273 44.642626 
L 150.981818 46.229738 
L 153.236364 49.378426 
L 155.490909 54.038024 
L 157.745455 60.13356 
L 160 67.566953 
L 162.254545 76.218597 
L 164.509091 85.949284 
L 166.763636 96.602444 
L 169.018182 108.006664 
L 171.272727 119.978444 
L 173.527273 132.325155 
L 175.781818 144.848134 
L 178.036364 157.345881 
L 180.290909 169.617303 
L 182.545455 181.464947 
L 184.8 192.698182 
L 187.054545 203.136259 
L 189.309091 212.611227 
L 191.563636 220.97063 
L 193.818182 228.079961 
L 196.072727 233.824829 
L 198.327273 238.112796 
L 200.581818 240.874869 
L 202.836364 242.066604 
L 205.090909 241.668825 
L 207.345455 239.687933 
L 209.6 236.155802 
L 211.854545 231.129264 
L 214.109091 224.689198 
L 216.363636 216.939228 
L 218.618182 208.004054 
L 220.872727 198.027445 
L 223.127273 187.169929 
L 225.381818 175.606208 
L 227.636364 163.522346 
L 229.890909 151.112778 
L 232.145455 138.577176 
L 234.4 126.117246 
L 236.654545 113.93347 
L 238.909091 102.221891 
L 241.163636 91.170952 
L 243.418182 80.958467 
L 245.672727 71.748759 
L 247.927273 63.690016 
L 250.181818 56.911905 
L 252.436364 51.523489 
L 254.690909 47.61147 
L 256.945455 45.238793 
L 259.2 44.443636 
" style="fill:none;stroke:#1f77b4;stroke-linecap:square;stroke-width:1.5;"/>
   </g>
   <g id="line2d_4">
    <path clip-path="url(#pa5b6ade47e)" d="M 36 44.443636 
L 38.254545 47.61147 
L 40.509091 56.911905 
L 42.763636 71.748759 
L 45.018182 91.170952 
L 47.272727 113.93347 
L 49.527273 138.577176 
L 51.781818 163.522346 
L 54.036364 187.169929 
L 56.290909 208.004054 
L 58.545455 224.689198 
L 60.8 236.155802 
L 63.054545 241.668825 
L 65.309091 240.874869 
L 67.563636 233.824829 
L 69.818182 220.97063 
L 72.072727 203.136259 
L 74.327273 181.464947 
L 76.581818 157.345881 
L 78.836364 132.325155 
L 81.090909 108.006664 
L 83.345455 85.949284 
L 85.6 67.566953 
L 87.854545 54.038024 
L 90.109091 46.229738 
L 92.363636 44.642626 
L 94.618182 49.378426 
L 96.872727 60.13356 
L 99.127273 76.218597 
L 101.381818 96.602444 
L 103.636364 119.978444 
L 105.890909 144.848134 
L 108.145455 169.617303 
L 110.4 192.698182 
L 112.654545 212.611227 
L 114.909091 228.079961 
L 117.163636 238.112796 
L 119.418182 242.066604 
L 121.672727 239.687933 
L 123.927273 231.129264 
L 126.181818 216.939228 
L 128.436364 198.027445 
L 130.690909 175.606208 
L 132.945455 151.112778 
L 135.2 126.117246 
L 137.454545 102.221891 
L 139.709091 80.958467 
L 141.963636 63.690016 
L 144.218182 51.523489 
L 146.472727 45.238793 
L 148.727273 45.238793 
L 150.981818 51.523489 
L 153.236364 63.690016 
L 155.490909 80.958467 
L 157.745455 102.221891 
L 160 126.117246 
L 162.254545 151.112778 
L 164.509091 175.606208 
L 166.763636 198.027445 
L 169.018182 216.939228 
L 171.272727 231.129264 
L 173.527273 239.687933 
L 175.781818 242.066604 
L 178.036364 238.112796 
L 180.290909 228.079961 
L 182.545455 212.611227 
L 184.8 192.698182 
L 187.054545 169.617303 
L 189.309091 144.848134 
L 191.563636 119.978444 
L 193.818182 96.602444 
L 196.072727 76.218597 
L 198.327273 60.13356 
L 200.581818 49.378426 
L 202.836364 44.642626 
L 205.090909 46.229738 
L 207.345455 54.038024 
L 209.6 67.566953 
L 211.854545 85.949284 
L 214.109091 108.006664 
L 216.363636 132.325155 
L 218.618182 157.345881 
L 220.872727 181.464947 
L 223.127273 203.136259 
L 225.381818 220.97063 
L 227.636364 233.824829 
L 229.890909 240.874869 
L 232.145455 241.668825 
L 234.4 236.155802 
L 236.654545 224.689198 
L 238.909091 208.004054 
L 241.163636 187.169929 
L 243.418182 163.522346 
L 245.672727 138.577176 
L 247.927273 113.93347 
L 250.181818 91.170952 
L 252.436364 71.748759 
L 254.690909 56.911905 
L 256.945455 47.61147 
L 259.2 44.443636 
" style="fill:none;stroke:#2ca02c;stroke-linecap:square;stroke-width:1.5;"/>
   </g>
   <g id="patch_3">
    <path d="M 36 252 
L 36 34.56 
" style="fill:none;stroke:#000000;stroke-linecap:square;stroke-linejoin:miter;stroke-width:0.8;"/>
   </g>
   <g id="patch_4">
    <path d="M 259.2 252 
L 259.2 34.56 
" style="fill:none;stroke:#000000;stroke-linecap:square;stroke-linejoin:miter;stroke-width:0.8;"/>
   </g>
   <g id="patch_5">
    <path d="M 36 252 
L 259.2 252 
" style="fill:none;stroke:#000000;stroke-linecap:square;stroke-linejoin:miter;stroke-width:0.8;"/>
   </g>
   <g id="patch_6">
    <path d="M 36 34.56 
L 259.2 34.56 
" style="fill:none;stroke:#000000;stroke-linecap:square;stroke-linejoin:miter;stroke-width:0.8;"/>
   </g>
  </g>
 </g>
 <defs>
  <clipPath id="pa5b6ade47e">
   <rect height="217.44" width="223.2" x="36" y="34.56"/>
  </clipPath>
 </defs>
</svg>
